<mxfile host="app.diagrams.net" agent="Mozilla/5.0 (Windows NT 10.0; Win64; x64) AppleWebKit/537.36 (KHTML, like Gecko) Chrome/132.0.0.0 Safari/537.36" version="24.8.6">
  <diagram name="Page-1" id="K8OefssBnJMbzSqkOOdy">
    <mxGraphModel dx="944" dy="549" grid="1" gridSize="10" guides="1" tooltips="1" connect="1" arrows="1" fold="1" page="1" pageScale="1" pageWidth="850" pageHeight="1100" math="0" shadow="0">
      <root>
        <mxCell id="0" />
        <mxCell id="1" parent="0" />
        <mxCell id="3kdU5p6HqZcH2HslndnK-15" style="edgeStyle=orthogonalEdgeStyle;rounded=0;orthogonalLoop=1;jettySize=auto;html=1;exitX=1;exitY=0.5;exitDx=0;exitDy=0;entryX=0;entryY=0.5;entryDx=0;entryDy=0;" edge="1" parent="1" source="3kdU5p6HqZcH2HslndnK-1" target="3kdU5p6HqZcH2HslndnK-4">
          <mxGeometry relative="1" as="geometry" />
        </mxCell>
        <mxCell id="3kdU5p6HqZcH2HslndnK-16" value="NO" style="edgeLabel;html=1;align=center;verticalAlign=middle;resizable=0;points=[];" vertex="1" connectable="0" parent="3kdU5p6HqZcH2HslndnK-15">
          <mxGeometry x="-0.1176" y="1" relative="1" as="geometry">
            <mxPoint as="offset" />
          </mxGeometry>
        </mxCell>
        <mxCell id="3kdU5p6HqZcH2HslndnK-33" style="edgeStyle=orthogonalEdgeStyle;rounded=0;orthogonalLoop=1;jettySize=auto;html=1;exitX=0.5;exitY=1;exitDx=0;exitDy=0;entryX=0.5;entryY=0;entryDx=0;entryDy=0;" edge="1" parent="1" source="3kdU5p6HqZcH2HslndnK-1" target="3kdU5p6HqZcH2HslndnK-30">
          <mxGeometry relative="1" as="geometry" />
        </mxCell>
        <mxCell id="3kdU5p6HqZcH2HslndnK-34" value="YES" style="edgeLabel;html=1;align=center;verticalAlign=middle;resizable=0;points=[];" vertex="1" connectable="0" parent="3kdU5p6HqZcH2HslndnK-33">
          <mxGeometry x="-0.0122" y="-1" relative="1" as="geometry">
            <mxPoint as="offset" />
          </mxGeometry>
        </mxCell>
        <mxCell id="3kdU5p6HqZcH2HslndnK-1" value="Pallet LOADED" style="rhombus;whiteSpace=wrap;html=1;" vertex="1" parent="1">
          <mxGeometry x="400" y="180" width="120" height="70" as="geometry" />
        </mxCell>
        <mxCell id="3kdU5p6HqZcH2HslndnK-9" style="edgeStyle=orthogonalEdgeStyle;rounded=0;orthogonalLoop=1;jettySize=auto;html=1;exitX=0.5;exitY=1;exitDx=0;exitDy=0;entryX=0.5;entryY=0;entryDx=0;entryDy=0;" edge="1" parent="1" source="3kdU5p6HqZcH2HslndnK-4" target="3kdU5p6HqZcH2HslndnK-7">
          <mxGeometry relative="1" as="geometry" />
        </mxCell>
        <mxCell id="3kdU5p6HqZcH2HslndnK-10" value="YES" style="edgeLabel;html=1;align=center;verticalAlign=middle;resizable=0;points=[];" vertex="1" connectable="0" parent="3kdU5p6HqZcH2HslndnK-9">
          <mxGeometry x="0.0212" y="-2" relative="1" as="geometry">
            <mxPoint as="offset" />
          </mxGeometry>
        </mxCell>
        <mxCell id="3kdU5p6HqZcH2HslndnK-17" style="edgeStyle=orthogonalEdgeStyle;rounded=0;orthogonalLoop=1;jettySize=auto;html=1;exitX=1;exitY=0.5;exitDx=0;exitDy=0;entryX=1;entryY=0.5;entryDx=0;entryDy=0;" edge="1" parent="1" source="3kdU5p6HqZcH2HslndnK-4" target="3kdU5p6HqZcH2HslndnK-11">
          <mxGeometry relative="1" as="geometry">
            <Array as="points">
              <mxPoint x="830" y="215" />
              <mxPoint x="830" y="120" />
            </Array>
          </mxGeometry>
        </mxCell>
        <mxCell id="3kdU5p6HqZcH2HslndnK-18" value="NO" style="edgeLabel;html=1;align=center;verticalAlign=middle;resizable=0;points=[];" vertex="1" connectable="0" parent="3kdU5p6HqZcH2HslndnK-17">
          <mxGeometry x="-0.4166" y="-3" relative="1" as="geometry">
            <mxPoint as="offset" />
          </mxGeometry>
        </mxCell>
        <mxCell id="3kdU5p6HqZcH2HslndnK-4" value="Pallet DONE" style="rhombus;whiteSpace=wrap;html=1;" vertex="1" parent="1">
          <mxGeometry x="580" y="180" width="120" height="70" as="geometry" />
        </mxCell>
        <mxCell id="3kdU5p6HqZcH2HslndnK-25" style="edgeStyle=orthogonalEdgeStyle;rounded=0;orthogonalLoop=1;jettySize=auto;html=1;exitX=0.5;exitY=1;exitDx=0;exitDy=0;entryX=0.5;entryY=0;entryDx=0;entryDy=0;" edge="1" parent="1" source="3kdU5p6HqZcH2HslndnK-7" target="3kdU5p6HqZcH2HslndnK-24">
          <mxGeometry relative="1" as="geometry" />
        </mxCell>
        <mxCell id="3kdU5p6HqZcH2HslndnK-7" value="Unload Pallet" style="rounded=0;whiteSpace=wrap;html=1;fillColor=#d80073;strokeColor=#A50040;fontColor=#ffffff;" vertex="1" parent="1">
          <mxGeometry x="580" y="317.5" width="120" height="40" as="geometry" />
        </mxCell>
        <mxCell id="3kdU5p6HqZcH2HslndnK-12" style="edgeStyle=orthogonalEdgeStyle;rounded=0;orthogonalLoop=1;jettySize=auto;html=1;exitX=0.5;exitY=1;exitDx=0;exitDy=0;entryX=0.5;entryY=0;entryDx=0;entryDy=0;" edge="1" parent="1" source="3kdU5p6HqZcH2HslndnK-11" target="3kdU5p6HqZcH2HslndnK-1">
          <mxGeometry relative="1" as="geometry" />
        </mxCell>
        <mxCell id="3kdU5p6HqZcH2HslndnK-11" value="START / WAIT" style="rounded=1;whiteSpace=wrap;html=1;fillColor=#008a00;fontColor=#ffffff;strokeColor=#005700;" vertex="1" parent="1">
          <mxGeometry x="400" y="100" width="120" height="40" as="geometry" />
        </mxCell>
        <mxCell id="3kdU5p6HqZcH2HslndnK-23" style="edgeStyle=orthogonalEdgeStyle;rounded=0;orthogonalLoop=1;jettySize=auto;html=1;exitX=0.5;exitY=1;exitDx=0;exitDy=0;entryX=-0.028;entryY=0.528;entryDx=0;entryDy=0;entryPerimeter=0;" edge="1" parent="1" source="3kdU5p6HqZcH2HslndnK-19" target="3kdU5p6HqZcH2HslndnK-11">
          <mxGeometry relative="1" as="geometry">
            <mxPoint x="490" y="560" as="sourcePoint" />
            <mxPoint x="430" y="80" as="targetPoint" />
            <Array as="points">
              <mxPoint x="460" y="490" />
              <mxPoint x="160" y="490" />
              <mxPoint x="160" y="120" />
              <mxPoint x="397" y="120" />
            </Array>
          </mxGeometry>
        </mxCell>
        <mxCell id="3kdU5p6HqZcH2HslndnK-19" value="MACHINE Pallet" style="rounded=0;whiteSpace=wrap;html=1;fillColor=#1ba1e2;fontColor=#ffffff;strokeColor=#006EAF;" vertex="1" parent="1">
          <mxGeometry x="400" y="420" width="120" height="40" as="geometry" />
        </mxCell>
        <mxCell id="3kdU5p6HqZcH2HslndnK-27" style="edgeStyle=orthogonalEdgeStyle;rounded=0;orthogonalLoop=1;jettySize=auto;html=1;exitX=0.5;exitY=1;exitDx=0;exitDy=0;entryX=0.5;entryY=0;entryDx=0;entryDy=0;" edge="1" parent="1" source="3kdU5p6HqZcH2HslndnK-24" target="3kdU5p6HqZcH2HslndnK-26">
          <mxGeometry relative="1" as="geometry" />
        </mxCell>
        <mxCell id="3kdU5p6HqZcH2HslndnK-24" value="Select Pallet" style="rounded=0;whiteSpace=wrap;html=1;fillColor=#fa6800;fontColor=#000000;strokeColor=#C73500;" vertex="1" parent="1">
          <mxGeometry x="580" y="420" width="120" height="40" as="geometry" />
        </mxCell>
        <mxCell id="3kdU5p6HqZcH2HslndnK-28" style="edgeStyle=orthogonalEdgeStyle;rounded=0;orthogonalLoop=1;jettySize=auto;html=1;exitX=1;exitY=0.5;exitDx=0;exitDy=0;" edge="1" parent="1" source="3kdU5p6HqZcH2HslndnK-26">
          <mxGeometry relative="1" as="geometry">
            <mxPoint x="830" y="220" as="targetPoint" />
          </mxGeometry>
        </mxCell>
        <mxCell id="3kdU5p6HqZcH2HslndnK-26" value="Load Pallet" style="rounded=0;whiteSpace=wrap;html=1;fillColor=#d80073;fontColor=#ffffff;strokeColor=#A50040;" vertex="1" parent="1">
          <mxGeometry x="580" y="520" width="120" height="40" as="geometry" />
        </mxCell>
        <mxCell id="3kdU5p6HqZcH2HslndnK-35" style="edgeStyle=orthogonalEdgeStyle;rounded=0;orthogonalLoop=1;jettySize=auto;html=1;exitX=0.5;exitY=1;exitDx=0;exitDy=0;entryX=0.5;entryY=0;entryDx=0;entryDy=0;" edge="1" parent="1" source="3kdU5p6HqZcH2HslndnK-30" target="3kdU5p6HqZcH2HslndnK-19">
          <mxGeometry relative="1" as="geometry" />
        </mxCell>
        <mxCell id="3kdU5p6HqZcH2HslndnK-36" value="YES" style="edgeLabel;html=1;align=center;verticalAlign=middle;resizable=0;points=[];" vertex="1" connectable="0" parent="3kdU5p6HqZcH2HslndnK-35">
          <mxGeometry x="-0.0711" y="-1" relative="1" as="geometry">
            <mxPoint as="offset" />
          </mxGeometry>
        </mxCell>
        <mxCell id="3kdU5p6HqZcH2HslndnK-39" style="edgeStyle=orthogonalEdgeStyle;rounded=0;orthogonalLoop=1;jettySize=auto;html=1;exitX=0;exitY=0.5;exitDx=0;exitDy=0;entryX=1;entryY=0.5;entryDx=0;entryDy=0;" edge="1" parent="1" source="3kdU5p6HqZcH2HslndnK-30" target="3kdU5p6HqZcH2HslndnK-37">
          <mxGeometry relative="1" as="geometry" />
        </mxCell>
        <mxCell id="3kdU5p6HqZcH2HslndnK-40" value="NO" style="edgeLabel;html=1;align=center;verticalAlign=middle;resizable=0;points=[];" vertex="1" connectable="0" parent="3kdU5p6HqZcH2HslndnK-39">
          <mxGeometry x="-0.0492" y="-2" relative="1" as="geometry">
            <mxPoint as="offset" />
          </mxGeometry>
        </mxCell>
        <mxCell id="3kdU5p6HqZcH2HslndnK-30" value="Machine Idle" style="rhombus;whiteSpace=wrap;html=1;" vertex="1" parent="1">
          <mxGeometry x="400" y="300" width="120" height="75" as="geometry" />
        </mxCell>
        <mxCell id="3kdU5p6HqZcH2HslndnK-38" style="edgeStyle=orthogonalEdgeStyle;rounded=0;orthogonalLoop=1;jettySize=auto;html=1;exitX=0.5;exitY=0;exitDx=0;exitDy=0;entryX=0;entryY=0.5;entryDx=0;entryDy=0;" edge="1" parent="1" source="3kdU5p6HqZcH2HslndnK-37" target="3kdU5p6HqZcH2HslndnK-11">
          <mxGeometry relative="1" as="geometry" />
        </mxCell>
        <mxCell id="3kdU5p6HqZcH2HslndnK-37" value="ADD Pallet to Table&amp;nbsp;" style="rounded=0;whiteSpace=wrap;html=1;fillColor=#d80073;fontColor=#ffffff;strokeColor=#A50040;" vertex="1" parent="1">
          <mxGeometry x="210" y="320" width="120" height="40" as="geometry" />
        </mxCell>
      </root>
    </mxGraphModel>
  </diagram>
</mxfile>
